<svg xmlns="http://www.w3.org/2000/svg" viewBox="0 0 248.62 55.8"><defs><style>.cls-1{fill:#f74020;}.cls-2{fill:#230d59;}</style></defs><g id="图层_2" data-name="图层 2"><g id="图层_1-2" data-name="图层 1"><path class="cls-1" d="M86.57,22l-.35,2a4.68,4.68,0,0,0,.49,3h19.67l-6.93-4a3.61,3.61,0,0,1-1.15-1H86.57Z"/><path class="cls-1" d="M102.09,36.76l3.6,2.08a3.6,3.6,0,0,1,.78,5.69h11.42c.47-2.47,1-5.54,1.18-6.64a6.14,6.14,0,0,0,0-1.13h-17Z"/><path class="cls-1" d="M88.65,29l10.76,6.21h19.35a4.49,4.49,0,0,0-2.11-2.38c-1.66-.88-3.59-1.91-4.7-2.55L109.74,29H88.65Z"/><path class="cls-1" d="M87.53,16.58l-.62,3.49H97.7a3.52,3.52,0,0,1,2.64-3.49H87.53Z"/><path class="cls-1" d="M88.61,10.76c-.07.24-.14.49-.19.74l-.48,2.75h35.19l.69-3.49H88.61Z"/><path class="cls-1" d="M94.61,6.31a6.25,6.25,0,0,0-4.69,2.12h34.36l.41-2.12Z"/><path class="cls-1" d="M33.33,45.69H0A11,11,0,0,0,11,55.8H31.74l1.78-10.11Z"/><polygon class="cls-1" points="13.66 27.06 14.55 22.01 8.59 22.01 3.84 22.01 2.95 27.06 7.7 27.06 13.66 27.06"/><path class="cls-1" d="M11.72,44.53A3.15,3.15,0,0,1,11,42l.91-5.2H1.24L.16,42.9A10.11,10.11,0,0,0,0,44.53H11.72Z"/><polygon class="cls-1" points="12.23 35.21 13.32 29 7.5 29 2.61 29 1.52 35.21 6.4 35.21 12.23 35.21"/><path class="cls-1" d="M14.91,20.07a4.7,4.7,0,0,1,3.56-3.49H4.8a.5.5,0,0,1,0,.12l-.6,3.37H14.91Z"/><path class="cls-1" d="M40.1,8.43H10.18a12.54,12.54,0,0,1,7-2.12H69.53a12.5,12.5,0,0,1,7,2.12H40.1Z"/><path class="cls-1" d="M65.24,55.8H37.29l1.8-10.11h78.58L117.22,48a9.42,9.42,0,0,1-9.28,7.79H65.24Z"/><polygon class="cls-1" points="47.15 27.06 53.12 27.06 54.02 22.01 48.05 22.01 43.32 22.01 42.42 27.06 47.15 27.06"/><polygon class="cls-1" points="75.77 22.01 71.02 22.01 70.13 27.06 74.88 27.06 80.84 27.06 81.73 22.01 80.61 22.01 75.77 22.01"/><polygon class="cls-1" points="45.62 36.76 40.69 36.76 39.3 44.53 44.23 44.53 49.99 44.53 51.38 36.76 45.62 36.76"/><path class="cls-1" d="M68.42,36.76l-.88,5A4.74,4.74,0,0,1,66,44.53H77.76l1.37-7.77H68.42Z"/><polygon class="cls-1" points="45.83 35.21 51.66 35.21 52.77 29 46.94 29 42.07 29 41.21 33.81 40.96 35.21 45.83 35.21"/><polygon class="cls-1" points="69.79 29 68.69 35.21 73.58 35.21 79.41 35.21 80.5 29 74.67 29 69.79 29"/><polygon class="cls-1" points="54.37 20.07 54.99 16.58 44.29 16.58 43.66 20.07 48.26 20.07 54.37 20.07"/><path class="cls-1" d="M76.28,16.58H67.43A4.72,4.72,0,0,1,71,20.07H82a12.3,12.3,0,0,0-.15-3.49h-5.6Z"/><path class="cls-1" d="M44.7,14.25H81.21a12.74,12.74,0,0,0-2.09-3.49H7.57a12.34,12.34,0,0,0-2.1,3.49H44.7Z"/><line class="cls-1" x1="45.76" y1="8.3" x2="45.74" y2="8.43"/><path class="cls-1" d="M179.76,10.11a5.06,5.06,0,1,1,5.06-5,5.06,5.06,0,0,1-5.06,5.05"/><path class="cls-2" d="M217.44,27.57h30.15l1-5.79H197.09l-1,5.79h14c-1.11,2.17-2.33,4.46-3.66,6.85s-2.74,4.79-4.21,7.22-3,4.84-4.55,7.25-3.1,4.7-4.63,6.88h42.68a5.57,5.57,0,0,0,5.16-4.47,4.09,4.09,0,0,0-.05-1.75c-.41-2.11-.86-4.18-1.32-6.21s-.94-4-1.39-5.93-.87-3.57-1.27-5h-7c.29,1.15.61,2.45.95,3.9s.68,2.95,1,4.5.68,3.11,1,4.7c.12.58,1.06,4.61,1.06,4.61H204.05q3.28-4.76,6.67-10.34T217.44,27.57Z"/><polygon class="cls-2" points="248.33 6.47 202.65 6.47 201.66 12.2 247.31 12.2 248.33 6.47"/><path class="cls-2" d="M169.42,12.71h22.25l.91-5.37h-6.32a7.17,7.17,0,0,1-13,0H158.39c-.18-.82-.38-1.61-.6-2.39a19.92,19.92,0,0,0-.67-2h-7.58c.18.55.36,1.22.55,2s.36,1.58.55,2.36H140.47l-.88,5.37h21.73c-.38.86-.78,1.72-1.2,2.6s-.86,1.76-1.32,2.65H142.57l-6.21,37.83h39.86a5.47,5.47,0,0,0,5.14-4.38h0L187.05,18H167c.45-.81.89-1.67,1.31-2.56S169.07,13.61,169.42,12.71Zm6.25,34.7h0l-.15.88-.35,2.07H143.62l.91-5.49H176.1ZM177,39.56H145.4l.9-5.43h31.62Zm2.76-16.28-.95,5.6H147.17l.92-5.6Z"/></g></g></svg>